#N canvas 276 166 450 300 10;
#X obj 57 151 f2b;
#X msg 57 118 3.14159;
#X obj 57 187 unpack 0 0 0 0;
#X floatatom 57 228 5 0 0 0 - - - 0;
#X floatatom 92 228 5 0 0 0 - - - 0;
#X floatatom 127 228 5 0 0 0 - - - 0;
#X floatatom 162 228 5 0 0 0 - - - 0;
#X text 244 268 Martin Peach 2013_03_13;
#X msg 135 118 100000;
#X text 53 8 [f2b] converts floats to lists of four bytes suitable for sending through a serial connection. This is the binary representation \, so the receiver must use the same floating-point format.;
#X obj 213 114 * 4;
#X floatatom 213 141 12 0 0 0 - - - 0;
#X obj 213 91 atan;
#X msg 213 68 1;
#N canvas 961 293 504 228 META 0;
#X text 12 25 LICENSE GPL v2 or later;
#X text 12 105 AUTHOR Martin Peach;
#X text 12 5 KEYWORDS binary float;
#X text 12 46 DESCRIPTION convert numbers to IEEE-754 binary representation (native endianness), f 81;
#X text 12 65 INLET_0 float;
#X text 12 125 HELP_PATCH_AUTHORS "pd meta" information added by IOhannes m zmölnig for mrpeach-1.0, f 49;
#X text 12 85 OUTLET_0 list (4 floats);
#X restore 33 273 pd META;
#X connect 0 0 2 0;
#X connect 1 0 0 0;
#X connect 2 0 3 0;
#X connect 2 1 4 0;
#X connect 2 2 5 0;
#X connect 2 3 6 0;
#X connect 8 0 0 0;
#X connect 10 0 11 0;
#X connect 10 0 0 0;
#X connect 12 0 10 0;
#X connect 13 0 12 0;
