#N canvas 44 52 601 653 12;
#X obj 107 488 dac~;
#X obj 177 471 tabwrite~ wave;
#X obj 422 449 table wave 512;
#X floatatom 127 304 5 0 0 2 pulse_frequency - - 0;
#X floatatom 254 370 5 0 0 0 - - - 0;
#X obj 418 215 line;
#X msg 442 163 0.01 10000;
#X msg 441 186 0.99 10000;
#X obj 393 302 metro 100;
#X obj 393 283 tgl 15 0 empty empty graph_waveform 20 8 0 8 #14e814 #285014 #000000 0 1;
#X obj 184 200 mtof;
#X obj 184 157 counter 127;
#X obj 184 67 tgl 15 0 empty empty play_all_the_midi_notes 20 8 0 8 #14e814 #285014 #000000 0 1;
#X obj 184 133 metro 100;
#X floatatom 251 112 5 0 0 0 - - - 0;
#X msg 251 88 10000;
#X text 47 592 outlet: pulse;
#X obj 254 299 random 1000;
#X obj 254 325 * 0.001;
#X obj 254 275 metro 100;
#X obj 254 204 tgl 15 0 empty empty random_pulse_widths 20 8 0 8 #14e814 #285014 #000000 0 1;
#X floatatom 321 253 5 0 0 0 - - - 0;
#X msg 321 228 100;
#X obj 107 424 sqosc~ 440 0.5 2000;
#X obj 21 130 osc~ 1;
#X obj 22 153 +~ 1;
#X floatatom 48 192 5 0 0 2 fm_depth - - 0;
#X floatatom 21 100 0 0 0 2 fm_frequency - - 0;
#X obj 393 348 spigot;
#X obj 436 326 tgl 15 0 empty empty sync_graph 20 7 0 8 #14e814 #285014 #000000 0 1;
#X msg 393 372 0;
#X obj 108 352 +~;
#X text 349 608 2007_MartinPeach;
#X text 270 448 click to see graph:;
#X obj 21 219 *~ 0;
#X text 32 16 sqosc~ is a bandlimited pulse generator;
#X text 79 541 frequency(Hz) pulsewidth(0-1) bandwidth(Hz);
#X text 49 524 creation arguments:;
#X text 78 575 frequency(Hz) phase(0-1) pulsewidth(0-1);
#X text 47 558 inlets:;
#N canvas 393 221 494 344 META 0;
#X text 12 165 HELP_PATCH_AUTHORS "pd meta" information added by Jonathan Wilkes for Pd version 0.42.;
#X text 12 25 LICENSE GPL v2 or later;
#X text 12 145 AUTHOR Martin Peach;
#X text 12 5 KEYWORDS signal bandlimited;
#X text 12 46 DESCRIPTION bandlimited pulse generator;
#X text 12 65 INLET_0 signal;
#X text 12 85 INLET_1 float;
#X text 12 105 INLET_2 float;
#X text 12 125 OUTLET_0 signal;
#X restore 513 623 pd META;
#X connect 3 0 31 1;
#X connect 4 0 23 2;
#X connect 5 0 4 0;
#X connect 6 0 5 0;
#X connect 7 0 5 0;
#X connect 8 0 1 0;
#X connect 8 0 28 0;
#X connect 9 0 8 0;
#X connect 10 0 3 0;
#X connect 11 0 10 0;
#X connect 12 0 13 0;
#X connect 13 0 11 0;
#X connect 14 0 13 1;
#X connect 15 0 14 0;
#X connect 17 0 18 0;
#X connect 18 0 4 0;
#X connect 19 0 17 0;
#X connect 20 0 19 0;
#X connect 21 0 19 1;
#X connect 22 0 21 0;
#X connect 23 0 1 0;
#X connect 23 0 0 1;
#X connect 23 0 0 0;
#X connect 24 0 25 0;
#X connect 25 0 34 0;
#X connect 26 0 34 1;
#X connect 27 0 24 0;
#X connect 28 0 30 0;
#X connect 29 0 28 1;
#X connect 30 0 23 1;
#X connect 31 0 23 0;
#X connect 34 0 31 0;
