#N canvas 627 296 564 304 12;
#X obj 138 127 cd4024 7-stage counter;
#X obj 138 103 tgl 15 0 empty empty Clk 17 7 0 10 #28f4f4 #fc2828 #000000 0 1;
#X obj 309 103 tgl 15 0 empty empty Reset 17 7 0 10 #28f4f4 #fc2828 #000000 0 1;
#X obj 138 174 tgl 15 0 empty empty Q1 17 7 0 10 #14e814 #fc2828 #000000 0 1;
#X obj 170 174 tgl 15 0 empty empty Q2 17 7 0 10 #14e814 #fc2828 #000000 0 1;
#X obj 202 174 tgl 15 0 empty empty Q3 17 7 0 10 #14e814 #fc2828 #000000 0 1;
#X obj 234 174 tgl 15 0 empty empty Q4 17 7 0 10 #14e814 #fc2828 #000000 0 1;
#X obj 267 174 tgl 15 0 empty empty Q5 17 7 0 10 #14e814 #fc2828 #000000 0 1;
#X obj 300 174 tgl 15 0 empty empty Q6 17 7 0 10 #14e814 #fc2828 #000000 0 1;
#X obj 334 174 tgl 15 0 empty empty Q7 17 7 0 10 #14e814 #fc2828 #000000 0 1;
#X text 15 16 cd4024 emulates the CMOS 7-stage ripple carry binary counter;
#X text 242 250 20070319_MartinPeach;
#N canvas 101 109 519 215 META 0;
#X text 12 25 LICENSE GPL v2 or later;
#X text 12 135 AUTHOR Martin Peach;
#X text 12 5 KEYWORDS CMOS emulator;
#X text 12 46 DESCRIPTION cd4024 emulates the CMOS 7-stage ripple carry binary counter, f 71;
#X text 12 85 INLET_# float;
#X text 12 105 OUTLET_# float;
#X text 12 155 HELP_PATCH_AUTHORS "pd meta" information generated by IOhannes m zmölnig for mrpeach-1.0;
#X text 12 65 INLET_1 float bang;
#X restore 475 16 pd META;
#X connect 0 0 3 0;
#X connect 0 1 4 0;
#X connect 0 2 5 0;
#X connect 0 3 6 0;
#X connect 0 4 7 0;
#X connect 0 5 8 0;
#X connect 0 6 9 0;
#X connect 1 0 0 0;
#X connect 2 0 0 1;
