#N canvas 581 224 647 312 12;
#X obj 79 38 tgl 15 0 empty empty CLK 17 7 0 10 #14e814 #3c50fc #000000 0 1;
#X obj 93 53 tgl 15 0 empty empty SET 17 7 0 10 #14e814 #3c50fc #000000 0 1;
#X obj 108 68 tgl 15 0 empty empty RESET 17 7 0 10 #14e814 #3c50fc #000000 0 1;
#X obj 123 83 tgl 15 0 empty empty J 17 7 0 10 #14e814 #3c50fc #000000 0 1;
#X obj 138 98 tgl 15 0 empty empty K 17 7 0 10 #14e814 #3c50fc #000000 0 1;
#X obj 79 146 cd4027 v;
#X obj 138 172 tgl 15 0 empty empty /Q 17 7 0 10 #8c0808 #e8e828 #000000 0 1;
#X obj 79 172 tgl 15 0 empty empty Q 17 7 0 10 #8c0808 #e8e828 #000000 0 1;
#X text 173 65 Sets Q=0. Overrides Clock;
#X text 133 35 A 0-1 transition or a bang clocks the flipflop.;
#X text 142 50 Sets Q=1. Overrides Reset and Clock;
#X text 237 264 20070307MartinPeach;
#X text 27 5 cd4027 emulates one half of the CMOS logic J/K flipflop.;
#X text 157 80 When Q=0 and J=1 \, Q will change on next clock.;
#X text 168 96 When Q=1 and K=1 \, Q will change on next clock.;
#X obj 6 89 metro 100;
#X obj 6 67 tgl 15 0 empty empty empty 17 7 0 10 #28f4f4 #583000 #000000 0 1;
#N canvas 101 109 519 215 META 0;
#X text 12 25 LICENSE GPL v2 or later;
#X text 12 135 AUTHOR Martin Peach;
#X text 12 5 KEYWORDS CMOS emulator;
#X text 12 46 DESCRIPTION cd4027 emulates parts of the CMOS logic J/K flipflop, f 71;
#X text 12 85 INLET_# float;
#X text 12 105 OUTLET_# float;
#X text 12 155 HELP_PATCH_AUTHORS "pd meta" information generated by IOhannes m zmölnig for mrpeach-1.0;
#X text 12 65 INLET_1 float bang;
#X restore 536 9 pd META;
#X connect 0 0 5 0;
#X connect 1 0 5 1;
#X connect 2 0 5 2;
#X connect 3 0 5 3;
#X connect 4 0 5 4;
#X connect 5 0 7 0;
#X connect 5 1 6 0;
#X connect 15 0 5 0;
#X connect 16 0 15 0;
