#N canvas 406 127 655 406 12;
#X obj 75 185 cd40193 up down counter;
#X obj 75 127 tgl 15 1 empty empty up_clock 17 7 0 10 #28f4f4 #fc2828 #000000 1 1;
#X obj 100 143 tgl 15 1 empty empty down_clock 17 7 0 10 #28f4f4 #fc2828 #000000 1 1;
#X obj 126 92 tgl 15 1 empty empty clear 17 7 0 10 #28f4f4 #fc2828 #000000 0 1;
#X obj 151 69 tgl 15 1 empty empty load 17 7 0 10 #28f4f4 #fc2828 #000000 1 1;
#X obj 177 156 tgl 15 0 empty empty A 17 7 0 10 #fcac44 #fc2828 #000000 0 1;
#X obj 202 156 tgl 15 0 empty empty B 17 7 0 10 #fcac44 #fc2828 #000000 0 1;
#X obj 228 156 tgl 15 0 empty empty C 17 7 0 10 #fcac44 #fc2828 #000000 0 1;
#X obj 254 156 tgl 15 0 empty empty D 17 7 0 10 #fcac44 #fc2828 #000000 0 1;
#X obj 75 227 tgl 15 0 empty empty QA 17 7 0 10 #14e814 #fc2828 #000000 0 1;
#X obj 110 227 tgl 15 0 empty empty QB 17 7 0 10 #14e814 #fc2828 #000000 0 1;
#X obj 146 227 tgl 15 0 empty empty QC 17 7 0 10 #14e814 #fc2828 #000000 0 1;
#X obj 182 227 tgl 15 0 empty empty QD 17 7 0 10 #14e814 #fc2828 #000000 0 1;
#X obj 218 209 tgl 15 0 empty empty Carry 17 7 0 10 #3c50fc #fc2828 #000000 0 1;
#X obj 254 227 tgl 15 0 empty empty Borrow 17 7 0 10 #3c50fc #fc2828 #000000 0 1;
#X obj 349 286 cd40193 up down counter;
#X obj 451 257 tgl 15 0 empty empty A 17 7 0 10 #fcac44 #fc2828 #000000 0 1;
#X obj 476 257 tgl 15 0 empty empty B 17 7 0 10 #fcac44 #fc2828 #000000 0 1;
#X obj 502 257 tgl 15 0 empty empty C 17 7 0 10 #fcac44 #fc2828 #000000 0 1;
#X obj 528 257 tgl 15 0 empty empty D 17 7 0 10 #fcac44 #fc2828 #000000 0 1;
#X obj 349 328 tgl 15 0 empty empty QA 17 7 0 10 #14e814 #fc2828 #000000 0 1;
#X obj 384 328 tgl 15 0 empty empty QB 17 7 0 10 #14e814 #fc2828 #000000 0 1;
#X obj 420 328 tgl 15 0 empty empty QC 17 7 0 10 #14e814 #fc2828 #000000 0 1;
#X obj 456 328 tgl 15 0 empty empty QD 17 7 0 10 #14e814 #fc2828 #000000 0 1;
#X obj 492 310 tgl 15 0 empty empty Carry 17 7 0 10 #3c50fc #fc2828 #000000 0 1;
#X obj 528 328 tgl 15 0 empty empty Borrow 17 7 0 10 #3c50fc #fc2828 #000000 0 1;
#X text 32 25 cd40193 emulates the CMOS synchronous up/down counter;
#X text 212 67 0 loads data into counter;
#X text 197 90 1 clears counter;
#X text 202 115 0 to 1 transition on a clock counts only if the other clock = 1 and clear = 0 and load = 1;
#X text 285 384 20070314_MartinPeach;
#X obj 9 59 tgl 15 0 empty empty empty 17 7 0 10 #fcfcfc #000000 #000000 0 1;
#X obj 9 91 metro 100;
#N canvas 101 109 519 215 META 0;
#X text 12 25 LICENSE GPL v2 or later;
#X text 12 135 AUTHOR Martin Peach;
#X text 12 5 KEYWORDS CMOS emulator;
#X text 12 46 DESCRIPTION cd40193 emulates the CMOS synchronous up/down counter, f 71;
#X text 12 85 INLET_# float;
#X text 12 105 OUTLET_# float;
#X text 12 155 HELP_PATCH_AUTHORS "pd meta" information generated by IOhannes m zmölnig for mrpeach-1.0;
#X text 12 65 INLET_1 float bang;
#X restore 560 27 pd META;
#X connect 0 0 9 0;
#X connect 0 1 10 0;
#X connect 0 2 11 0;
#X connect 0 3 12 0;
#X connect 0 4 13 0;
#X connect 0 4 15 0;
#X connect 0 5 14 0;
#X connect 0 5 15 1;
#X connect 1 0 0 0;
#X connect 2 0 0 1;
#X connect 3 0 0 2;
#X connect 3 0 15 2;
#X connect 4 0 0 3;
#X connect 4 0 15 3;
#X connect 5 0 0 4;
#X connect 6 0 0 5;
#X connect 7 0 0 6;
#X connect 8 0 0 7;
#X connect 15 0 20 0;
#X connect 15 1 21 0;
#X connect 15 2 22 0;
#X connect 15 3 23 0;
#X connect 15 4 24 0;
#X connect 15 5 25 0;
#X connect 16 0 15 4;
#X connect 17 0 15 5;
#X connect 18 0 15 6;
#X connect 19 0 15 7;
#X connect 31 0 32 0;
#X connect 32 0 1 0;
