#N canvas 406 127 657 414 12;
#X obj 75 123 tgl 15 1 empty empty clock 17 7 0 10 #28f4f4 #fc2828 #000000 0 1;
#X obj 96 143 tgl 15 1 empty empty up_down 17 7 0 10 #28f4f4 #fc2828 #000000 1 1;
#X obj 117 92 tgl 15 1 empty empty reset 17 7 0 10 #28f4f4 #fc2828 #000000 0 1;
#X obj 139 69 tgl 15 1 empty empty preset_enable 17 7 0 10 #28f4f4 #fc2828 #000000 0 1;
#X obj 177 156 tgl 15 0 empty empty P1 17 7 0 10 #fcac44 #fc2828 #000000 0 1;
#X obj 211 156 tgl 15 0 empty empty P2 17 7 0 10 #fcac44 #fc2828 #000000 0 1;
#X obj 243 156 tgl 15 0 empty empty P3 17 7 0 10 #fcac44 #fc2828 #000000 0 1;
#X obj 283 156 tgl 15 0 empty empty P4 17 7 0 10 #fcac44 #fc2828 #000000 0 1;
#X obj 75 227 tgl 15 0 empty empty Q1 17 7 0 10 #14e814 #fc2828 #000000 0 1;
#X obj 117 227 tgl 15 0 empty empty Q2 17 7 0 10 #14e814 #fc2828 #000000 0 1;
#X obj 160 227 tgl 15 0 empty empty Q3 17 7 0 10 #14e814 #fc2828 #000000 0 1;
#X obj 203 227 tgl 15 0 empty empty Q4 17 7 0 10 #14e814 #fc2828 #000000 0 1;
#X obj 246 227 tgl 15 0 empty empty carry_out 17 7 0 10 #3c50fc #fc2828 #000000 0 1;
#X text 197 90 1 clears counter;
#X text 285 384 20070314_MartinPeach;
#X obj 9 59 tgl 15 0 empty empty empty 17 7 0 10 #fcfcfc #000000 #000000 0 1;
#X obj 9 91 metro 100;
#X obj 75 185 cd4516 up down counter;
#X text 283 65 1 loads data into counter;
#X obj 160 125 tgl 15 1 empty empty carry_in 17 7 0 10 #28f4f4 #fc2828 #000000 0 1;
#X text 32 25 cd4516 emulates the CMOS binary up/down counter;
#X text 271 179 0 to 1 transition on clock counts if reset = 0 and preset_enable = 0 and carry_in = 0;
#X obj 208 262 tgl 15 0 empty empty P1 17 7 0 10 #fcac44 #fc2828 #000000 0 1;
#X obj 242 262 tgl 15 0 empty empty P2 17 7 0 10 #fcac44 #fc2828 #000000 0 1;
#X obj 274 262 tgl 15 0 empty empty P3 17 7 0 10 #fcac44 #fc2828 #000000 0 1;
#X obj 314 262 tgl 15 0 empty empty P4 17 7 0 10 #fcac44 #fc2828 #000000 0 1;
#X obj 143 343 tgl 15 0 empty empty Q1 17 7 0 10 #14e814 #fc2828 #000000 0 1;
#X obj 185 343 tgl 15 0 empty empty Q2 17 7 0 10 #14e814 #fc2828 #000000 0 1;
#X obj 228 343 tgl 15 0 empty empty Q3 17 7 0 10 #14e814 #fc2828 #000000 0 1;
#X obj 271 343 tgl 15 0 empty empty Q4 17 7 0 10 #14e814 #fc2828 #000000 0 1;
#X obj 314 343 tgl 15 0 empty empty carry_out 17 7 0 10 #3c50fc #fc2828 #000000 0 1;
#X obj 123 288 cd4516 up down counter;
#N canvas 101 109 519 215 META 0;
#X text 12 25 LICENSE GPL v2 or later;
#X text 12 135 AUTHOR Martin Peach;
#X text 12 5 KEYWORDS CMOS emulator;
#X text 12 46 DESCRIPTION cd4516 emulates the CMOS binary up/down counter, f 71;
#X text 12 85 INLET_# float;
#X text 12 105 OUTLET_# float;
#X text 12 155 HELP_PATCH_AUTHORS "pd meta" information generated by IOhannes m zmölnig for mrpeach-1.0;
#X text 12 65 INLET_1 float bang;
#X restore 591 17 pd META;
#X connect 0 0 17 0;
#X connect 0 0 31 0;
#X connect 1 0 17 1;
#X connect 1 0 31 1;
#X connect 2 0 17 2;
#X connect 2 0 31 2;
#X connect 3 0 17 3;
#X connect 3 0 31 3;
#X connect 4 0 17 5;
#X connect 5 0 17 6;
#X connect 6 0 17 7;
#X connect 7 0 17 8;
#X connect 15 0 16 0;
#X connect 16 0 0 0;
#X connect 17 0 8 0;
#X connect 17 1 9 0;
#X connect 17 2 10 0;
#X connect 17 3 11 0;
#X connect 17 4 12 0;
#X connect 17 4 31 4;
#X connect 19 0 17 4;
#X connect 22 0 31 5;
#X connect 23 0 31 6;
#X connect 24 0 31 7;
#X connect 25 0 31 8;
#X connect 31 0 26 0;
#X connect 31 1 27 0;
#X connect 31 2 28 0;
#X connect 31 3 29 0;
#X connect 31 4 30 0;
