#N canvas 525 51 712 894 10;
#X obj 119 146 httpreq;
#X obj 44 56 bng 15 250 50 0 empty empty empty 17 7 0 10 #fcfcfc #000000 #000000;
#X msg 84 94 GET http://132.205.142.12/index.php;
#X obj 136 309 unpack 0 0 0 0;
#X floatatom 136 332 3 0 0 0 - - - 0;
#X floatatom 163 332 3 0 0 0 - - - 0;
#X floatatom 190 332 3 0 0 0 - - - 0;
#X floatatom 217 332 3 0 0 0 - - - 0;
#X text 88 331 from;
#X obj 119 257 tcpclient;
#X obj 153 283 tgl 15 0 empty empty connected 18 7 0 8 #14e814 #0c4410 #000000 0 1;
#X text 190 256 tcpclient opens a tcp socket to send and receive bytes on;
#X floatatom 270 342 9 0 0 0 - - - 0;
#X floatatom 313 320 9 0 0 0 - - - 0;
#X text 382 319 Size of the send buffer;
#X obj 270 274 route sent buf blocked;
#X text 340 341 Number of bytes sent;
#X obj 356 298 print sender_blocked!;
#X msg 85 206 connect 132.205.142.12 80;
#X obj 119 450 httpreceive;
#X floatatom 182 483 5 0 0 0 - - - 0;
#X obj 150 526 route reason Date Content-Length Content-Type;
#X floatatom 283 558 5 0 0 0 - - - 0;
#X msg 64 74 GET http://132.205.142.12/nothing;
#X msg 44 165 dump \$1;
#X obj 44 139 tgl 15 0 empty empty empty 17 7 0 10 #fcfcfc #000000 #000000 0 1;
#X obj 37 348 tgl 15 0 empty empty empty 17 7 0 10 #00fc04 #f8fc00 #000000 0 1;
#X msg 37 371 verbosity \$1;
#X obj 457 544 print more_status;
#X obj 76 392 bng 15 250 50 0 empty empty empty 17 7 0 10 #fcfcfc #000000 #000000;
#X text 515 726 Author: Martin Peach;
#X text 515 743 Date: 2011/01/13;
#X text 224 481 The right outlet is the status code.;
#X text 166 693 The left outlet is the message body as a list of bytes;
#X text 154 505 The middle outlet is the status header as name/value pairs;
#X obj 119 693 spigot;
#X obj 119 723 print message_body;
#X obj 152 671 tgl 15 0 empty empty printing_long_messages_can_hang_Pd 17 7 0 10 #00fc04 #f8fc00 #000000 0 1;
#X text 175 147 [httpreq] sends an HTTP/1.1 request as a list of bytes (actually float atoms) \, suitable for [tcpclient];
#X text 195 444 [htpreceive] expects an HTTP/1.1 response as one or more lists of bytes.;
#X text 187 557 message length:;
#X obj 27 14 tgl 15 0 empty empty empty 17 7 0 10 #00fc04 #f8fc00 #000000 0 1;
#X msg 27 37 verbosity \$1;
#X msg 105 115 HEAD http://132.205.142.12/index.php;
#X text 175 185 So far only GET and HEAD requests are supported;
#X text 274 73 should return 404 not found;
#X text 306 93 should return a web page;
#X text 332 114 should return only the metainformation;
#N canvas 56 616 494 344 META 0;
#X text 12 25 LICENSE GPL v2 or later;
#X text 12 245 HELP_PATCH_AUTHORS "pd meta" information added by IOhannes m zmölnig for mrpeach-1.0, f 50;
#X text 12 225 AUTHOR Martin Peach;
#X text 12 105 OUTLET_0 list (of bytes);
#X text 12 5 KEYWORDS control network HTTP;
#X text 12 45 DESCRIPTION create a HTTP/1.1 request;
#X text 12 76 INLET_0 bang \, GET HEAD;
#X restore 524 762 pd META;
#X obj 216 578 list;
#X obj 150 620 list;
#X obj 350 546 list;
#X listbox 150 643 0 0 0 0 reason - - 0;
#X listbox 216 601 0 0 0 0 date - - 0;
#X listbox 350 569 0 0 0 0 type - - 0;
#X connect 0 0 9 0;
#X connect 1 0 0 0;
#X connect 2 0 0 0;
#X connect 3 0 4 0;
#X connect 3 1 5 0;
#X connect 3 2 6 0;
#X connect 3 3 7 0;
#X connect 9 0 19 0;
#X connect 9 1 3 0;
#X connect 9 2 10 0;
#X connect 9 3 15 0;
#X connect 15 0 12 0;
#X connect 15 1 13 0;
#X connect 15 2 17 0;
#X connect 18 0 9 0;
#X connect 19 0 35 0;
#X connect 19 1 21 0;
#X connect 19 2 20 0;
#X connect 21 0 50 0;
#X connect 21 1 49 0;
#X connect 21 2 22 0;
#X connect 21 3 51 0;
#X connect 21 4 28 0;
#X connect 23 0 0 0;
#X connect 24 0 9 0;
#X connect 25 0 24 0;
#X connect 26 0 27 0;
#X connect 27 0 19 0;
#X connect 29 0 19 0;
#X connect 35 0 36 0;
#X connect 37 0 35 1;
#X connect 41 0 42 0;
#X connect 42 0 0 0;
#X connect 43 0 0 0;
#X connect 49 0 53 0;
#X connect 50 0 52 0;
#X connect 51 0 54 0;
