#N canvas 31 152 1205 761 12;
#X msg 148 156 disconnect;
#X floatatom 482 635 3 0 0 0 - - -, f 3;
#X floatatom 516 635 3 0 0 0 - - -, f 3;
#X floatatom 552 635 3 0 0 0 - - -, f 3;
#X floatatom 588 635 3 0 0 0 - - -, f 3;
#X text 442 634 from;
#X obj 459 487 tcpclient;
#X obj 505 513 tgl 15 0 empty empty connected 18 7 0 8 -24198 -13381
-1 1 1;
#X msg 172 180 dump \$1;
#X obj 120 165 tgl 15 0 empty empty empty 0 -6 0 8 -4034 -13381 -1
0 1;
#X text 224 42 connect with an IP address and port number;
#X msg 60 68 connect www.concordia.ca 80;
#X text 243 179 print received messages to main window in hexdump format
;
#X text 543 486 tcpclient opens a tcp socket to send and receive bytes
on;
#X text 43 405 See also:;
#X obj 48 429 netclient;
#X msg 35 43 connect 127.0.0.1 9997;
#X obj 48 452 tcpreceive;
#X text 46 474 can receive messages from tcpclient;
#X text 124 428 is what tcpclient is based on;
#X text 524 683 Received messages are output as a list of bytes;
#X msg 343 351 send 49 127 128 51 59;
#X obj 176 452 tcpserver;
#X text 142 451 and;
#X text 607 45 tcpclient can connect to a server and send and receive
messages as lists of bytes. Any integer value between 0 and 255 can
be transmitted or received.;
#X msg 197 205 send examples/test.txt;
#X obj 245 229 openpanel;
#X msg 245 253 send \$1;
#X obj 159 214 bng 15 250 50 0 empty empty empty 17 7 0 10 -4034 -13381
-1;
#X text 382 205 send a file;
#X text 322 228 ...any file;
#X msg 382 374 71 69 84 32 104 116 116 112 58 47 47 47 105 110 100
101 120 46 104 116 109 108 13 10;
#X text 865 381 'send' prefix is optional;
#X obj 459 684 spigot;
#X obj 504 661 tgl 15 0 empty empty enable_print 18 7 0 8 -24198 -13381
-1 0 1;
#X obj 459 713 print >>>;
#X text 612 124 GET http:///index.phpCRLF;
#X floatatom 634 583 9 0 0 0 - - -, f 9;
#X text 467 414 set send-buffer size;
#X floatatom 689 557 9 0 0 0 - - -, f 9;
#X text 768 556 Size of the send buffer;
#X msg 430 438 buf;
#X text 471 437 get send-buffer size;
#X msg 406 414 buf 10;
#X msg 454 462 verbosity \$1;
#X obj 399 447 tgl 15 1 empty empty empty 0 -6 0 8 -4034 -13381 -1
1 1;
#X text 566 463 print connection status messages to main window (default)
;
#X msg 124 116 send 71 69 84 32 104 116 116 112 58 47 47 47 105 110
100 101 120 46 112 104 112 13 10 13 10;
#X text 545 712 Attempting to print long messages can hang Pd!;
#X msg 271 279 unblock;
#X msg 85 93 connect 132.205.142.11 9997;
#X msg 226 307 hello \;;
#X obj 319 327 str to_list;
#X text 418 325 semicolon-terminated strings for netserver or netreceive
;
#X text 353 275 if the tcpclient sender blocks for any reason \, it
must be unblocked manually;
#X text 704 582 Number of bytes sent;
#X obj 744 533 print sender_blocked!;
#N canvas 527 268 494 344 META 0;
#X text 12 215 HELP_PATCH_AUTHORS "pd meta" information added by Jonathan
Wilkes for Pd version 0.42.;
#X text 12 195 AUTHOR Martin Peach;
#X text 12 45 DESCRIPTION connect to a server and send and receive
messages as lists of bytes;
#X text 12 25 LICENSE GPL v2 or later;
#X text 12 85 INLET_0 list buf verbosity connect send disconnect dump
unblock;
#X text 12 115 OUTLET_0 list;
#X text 12 5 KEYWORDS control network;
#X text 12 135 OUTLET_1 list;
#X text 12 155 OUTLET_2 float;
#X text 12 175 OUTLET_3 sent buf blocked ourIP;
#X restore 993 691 pd META;
#X obj 634 507 route sent buf blocked ourIP;
#X text 32 716 2017/12/27 Martin Peach;
#X floatatom 799 635 3 0 0 0 - - -, f 3;
#X floatatom 833 635 3 0 0 0 - - -, f 3;
#X floatatom 869 635 3 0 0 0 - - -, f 3;
#X floatatom 905 635 3 0 0 0 - - -, f 3;
#X text 739 634 our IP;
#X obj 799 607 unpack 0 0 0 0 0;
#X floatatom 945 635 6 0 0 0 - - -, f 6;
#X floatatom 625 635 5 0 0 0 - - -, f 5;
#X obj 482 607 unpack 0 0 0 0 0;
#X connect 0 0 6 0;
#X connect 6 0 33 0;
#X connect 6 1 68 0;
#X connect 6 2 7 0;
#X connect 6 3 58 0;
#X connect 8 0 6 0;
#X connect 9 0 8 0;
#X connect 11 0 6 0;
#X connect 16 0 6 0;
#X connect 21 0 6 0;
#X connect 25 0 6 0;
#X connect 26 0 27 0;
#X connect 27 0 6 0;
#X connect 28 0 26 0;
#X connect 31 0 6 0;
#X connect 33 0 35 0;
#X connect 34 0 33 1;
#X connect 41 0 6 0;
#X connect 43 0 6 0;
#X connect 44 0 6 0;
#X connect 45 0 44 0;
#X connect 47 0 6 0;
#X connect 49 0 6 0;
#X connect 50 0 6 0;
#X connect 51 0 52 0;
#X connect 58 0 37 0;
#X connect 58 1 39 0;
#X connect 58 2 56 0;
#X connect 58 3 65 0;
#X connect 65 0 60 0;
#X connect 65 1 61 0;
#X connect 65 2 62 0;
#X connect 65 3 63 0;
#X connect 65 4 66 0;
#X connect 68 0 1 0;
#X connect 68 1 2 0;
#X connect 68 2 3 0;
#X connect 68 3 4 0;
#X connect 68 4 67 0;
